<?xml version="1.0" encoding="UTF-8" standalone="no"?>
<svg
   width="64"
   height="64"
   fill="none"
   version="1.1"
   id="svg10"
   xmlns="http://www.w3.org/2000/svg"
   xmlns:svg="http://www.w3.org/2000/svg">
  <defs
     id="defs9" />
  <rect
     width="64"
     height="64"
     rx="17.934"
     fill="#bfdbfe"
     id="rect9"
     x="0"
     y="0"
     style="fill:#f0f6ff;fill-opacity:1" />
  <g
     id="g2"
     transform="matrix(0.77217018,0.44581267,-0.44581267,0.77217018,22.688118,-7.4897372)"
     style="fill:#2e6ff2;fill-opacity:1">
    <path
       style="fill:#2e6ff2;fill-opacity:1;stroke-width:0.735386;stroke-linecap:round;stroke-linejoin:round"
       d="m 32.091961,9.653944 c 4.418778,2.394969 6.048054,7.880404 3.653085,12.299182 l -6.877575,12.689301 c -2.394969,4.418778 -7.880404,6.048054 -12.299182,3.653085 -4.418777,-2.394968 -6.048054,-7.880403 -3.653085,-12.299181 L 19.79278,13.307029 C 22.187748,8.888251 27.673183,7.2589757 32.091961,9.653944 Z"
       id="path14" />
    <path
       style="fill:#2e6ff2;fill-opacity:1;stroke-width:0.735386;stroke-linecap:round;stroke-linejoin:round"
       d="m 45.810367,27.972624 c 4.418778,2.394969 6.048054,7.880404 3.653085,12.299182 l -6.877576,12.689301 c -2.394969,4.418779 -7.880403,6.048054 -12.299181,3.653086 -4.418778,-2.394969 -6.048054,-7.880404 -3.653086,-12.299182 L 33.511185,31.62571 c 2.394969,-4.418778 7.880404,-6.048054 12.299182,-3.653086 z"
       id="rect1-8" />
  </g>
</svg>
